HIERARCHY
ROOT Spine
{
    OFFSET 0.0 0.0 -0.0
    CHANNELS 6 Xposition Yposition Zposition Zrotation Xrotation Yrotation
    JOINT ShoulderCenter
    {
        OFFSET 0.0 34.31660079956055 0.0
        CHANNELS 3 Zrotation Xrotation Yrotation
        JOINT LeftShoulder
        {
            OFFSET 21.548973083496094 0.0 0.0
            CHANNELS 3 Zrotation Xrotation Yrotation
            JOINT LeftElbow
            {
                OFFSET 26.65042495727539 0.0 0.0
                CHANNELS 3 Zrotation Xrotation Yrotation
                JOINT LeftHand
                {
                    OFFSET 31.813560485839844 0.0 0.0
                    CHANNELS 3 Zrotation Xrotation Yrotation
                    End Site
                    {
                        OFFSET 12.725423812866211 0.0 0.0
                    }
                }
            }
        }
        JOINT RightShoulder
        {
            OFFSET -21.548973083496094 0.0 0.0
            CHANNELS 3 Zrotation Xrotation Yrotation
            JOINT RightElbow
            {
                OFFSET -26.65042495727539 0.0 0.0
                CHANNELS 3 Zrotation Xrotation Yrotation
                JOINT RightHand
                {
                    OFFSET -31.813560485839844 0.0 0.0
                    CHANNELS 3 Zrotation Xrotation Yrotation
                    End Site
                    {
                        OFFSET -12.725423812866211 0.0 0.0
                    }
                }
            }
        }
        End Site
        {
            OFFSET 0.0 13.726641654968262 0.0
        }
    }
    JOINT LeftHip
    {
        OFFSET 16.99239549035536 -16.99239549035536 0.0
        CHANNELS 3 Zrotation Xrotation Yrotation
        JOINT LeftKnee
        {
            OFFSET 0.0 -41.71665573120117 0.0
            CHANNELS 3 Zrotation Xrotation Yrotation
            JOINT LeftFoot
            {
                OFFSET 0.0 -45.40606689453125 0.0
                CHANNELS 3 Zrotation Xrotation Yrotation
                End Site
                {
                    OFFSET 0.0 0.0 18.16242790222168
                }
            }
        }
    }
    JOINT RightHip
    {
        OFFSET -16.99239549035536 -16.99239549035536 0.0
        CHANNELS 3 Zrotation Xrotation Yrotation
        JOINT RightKnee
        {
            OFFSET 0.0 -41.71665573120117 0.0
            CHANNELS 3 Zrotation Xrotation Yrotation
            JOINT RightFoot
            {
                OFFSET 0.0 -45.40606689453125 0.0
                CHANNELS 3 Zrotation Xrotation Yrotation
                End Site
                {
                    OFFSET 0.0 0.0 18.16242790222168
                }
            }
        }
    }
}
MOTION
Frames: 10
Frame Time: 0.03333333333333333
-7.599999904632568 11.0 29.399999618530273 -6.719878599818043 -11.035619152578237 -160.641072785402 1.9488583666763264e-07 -1.161925902153454e-06 -8.941450519429333 84.74246944608845 29.104166687887986 -169.9001425923668 2.5169696238660304e-06 5.401589736778711e-06 25.31346753306566 6.361109362927033e-15 -1.3241718894150476e-31 -2.385416011097637e-15 -114.29790702526778 7.5114939680101855 114.15108046809839 1.6349750674630705e-06 -1.853555660674889e-06 -119.64666020189425 9.392575543696946e-15 -3.2587042591073436e-32 -3.9756933518293955e-16 -6.337856883325743 0.3075213591962921 -69.70885317610517 9.733604437898423 -2.3143941250756797 6.409345177081587 1.9878466759146985e-16 -1.3362411644487784e-33 -7.702905869169456e-16 -12.273359679265473 -17.10654849767677 27.5746396397372 -2.426863672943248 12.86338271887575 27.921854004673378 7.951386703658791e-16 1.034509288605506e-33 1.4908850069360232e-16
-7.400000095367432 11.0 29.499998092651367 -6.188616522634627 -10.683470303094426 -160.05396809673334 2.0785417456680067e-07 3.0895576481426185e-07 -8.856000309080192 83.84968719119213 28.25596323431992 -169.04156828209634 7.482647314337023e-06 -2.6626303035851423e-06 26.456397660280064 0.0 0.0 7.951386703658792e-16 -114.70707415309394 7.392396141889589 115.73806393419751 -4.209498835121888e-08 -2.8411340388436675e-06 -118.36038558788506 2.161783260057234e-15 0.0 0.0 -5.692935110193769 0.20915067110284824 -69.67702883691797 9.318752004472858 -2.2404593216421915 6.121865238998906 -1.9878466759146977e-16 -7.951386703658791e-16 8.696829207126802e-17 -11.793498927713491 -16.830957680355784 28.422455709758662 -2.1419540727416115 12.899244438959037 27.66088784890158 -2.3854160110976376e-15 3.9756933518293945e-16 7.305336533986514e-15
-7.299999713897705 11.100000381469727 29.600000381469727 -5.4890445982083325 -10.002096055061392 -159.76886872137894 1.419751784519521e-06 7.377309203408392e-07 -8.498401078952888 83.33714607636598 27.637189754427133 -168.50721230353108 -3.262136489887388e-07 6.946490703062868e-07 27.44175671837165 0.0 0.0 7.95138670365879e-16 -115.16049558942028 6.541288100553911 118.56222898098925 1.234737591443318e-06 -7.255150071682143e-07 -116.13051365332466 -2.708441095933776e-15 -7.047594528625009e-33 2.981770013872047e-16 -4.7409335766618 0.42914718194761514 -69.79697777252744 9.10986234793075 -2.2394410898939507 6.119062534821098 1.987846675914698e-16 -4.547530414495036e-33 -2.6214728038625078e-15 -10.804030627427409 -16.454119724292777 28.09112962357635 -2.393599263795506 12.90879800454223 28.008663848068455 7.951386703658794e-16 3.975693351829397e-16 4.025389518727264e-15
-7.299999713897705 11.100000381469727 29.69999885559082 -4.792033279938609 -9.318898740675781 -159.55236980386803 4.8847196155181144e-08 -2.5016926940611875e-07 -8.17833402948491 82.74517445824846 27.3566684023884 -167.95508923678426 2.5052308379698867e-06 -6.242388020822801e-07 28.500597515536217 0.0 0.0 -1.5902773407317584e-15 -116.18385382563176 5.381486404724136 123.05603687613046 2.0669231343149775e-07 -1.2002750294814532e-06 -113.94207676814855 -1.560459640593038e-14 3.975693351829394e-16 1.5902773407317584e-15 -3.8584145689370093 0.8372330988914735 -69.86610689697679 9.207010699690635 -2.322794733202748 6.3781864837545115 -2.9817700138720465e-16 4.6229633834558544e-33 -1.776637966598761e-15 -9.92973700306697 -16.041012604883147 28.0644503737528 -2.393601841572064 12.908797981272993 28.00866869726925 -7.951386703658791e-16 -1.1927080055488188e-15 5.416882191867552e-15
-7.299999713897705 11.100000381469727 29.899999618530273 -4.085616239985076 -8.442846878990387 -159.31065665095272 -2.096159225611526e-07 -6.056711659859336e-07 -7.906720176992272 82.9440002954427 25.946688380458784 -167.89892780114565 4.164353000144586e-06 -2.489002955872671e-07 29.161562653548092 0.0 0.0 -1.5902773407317582e-15 -117.3191867046131 3.660107736913544 129.17190337903673 1.8953160350668077e-06 3.634309057443571e-06 -112.13012482667125 -6.5598940305185035e-15 3.1805546814635168e-15 -1.5902773407317582e-15 -3.023963616098988 1.4691111668979049 -70.09395800106235 9.48274450628926 -2.1853078886384294 6.007483328325907 7.951386703658794e-16 3.975693351829397e-16 -2.422688136271039e-15 -8.847390272954563 -15.502321275285551 28.195033272112077 -2.651446081120705 13.041593046300624 28.275617186159526 1.5902773407317582e-15 -7.951386703658791e-16 4.47265502080807e-16
-7.299999713897705 11.100000381469727 30.000001907348633 -3.2173817274124596 -7.238856403740283 -158.6663449512173 4.19071402182697e-07 3.896366187397026e-07 -7.857707454002597 83.87222722452452 24.030281885888794 -168.66065092907667 -4.361403591728784e-06 6.920452162577603e-07 30.15604114510971 6.3611093629270335e-15 6.3611093629270335e-15 -3.531125038440127e-31 -118.65686102682187 0.9159411431674926 136.94575048349412 4.4555531132963474e-07 -2.804025189200713e-06 -110.2412833443228 -1.9878466759146984e-15 0.0 0.0 -1.763778556106878 2.3248195276931747 -70.2948906731464 9.672391404768675 -2.4240321082067324 6.784893779180777 -3.975693351829396e-16 -8.620910738379216e-35 2.4848083448933725e-17 -7.721126807445499 -14.61956904492824 27.777877096071638 -2.651446293638685 13.041592613449275 28.27561918369601 7.951386703658791e-16 -1.1034765745125397e-32 -1.5902773407317582e-15
-7.400000095367432 11.100000381469727 30.19999885559082 -2.1896549678985586 -6.039708905327276 -158.3767309282184 -1.4331370091986415e-07 7.79664239654368e-07 -7.608513511150077 84.69147501332134 23.195257063610878 -169.24314584329056 3.0515885843662226e-06 -4.223682046188508e-06 30.77562148426826 -6.3611093629270335e-15 -2.482822292653214e-31 4.47265502080807e-15 -118.19236124367178 -3.017124175757243 145.94885841790298 -1.3192372352422536e-06 1.3006199191973685e-06 -107.33753238881866 1.5902773407317584e-15 0.0 0.0 -0.34328214760099535 3.5022188201241886 -71.42513592362246 10.588756654532773 -2.64768518152121 7.6015018540896735 -7.951386703658791e-16 -3.9756933518293955e-16 3.7272125173400575e-17 -6.043657719441596 -13.86171083873662 27.34655870854792 -3.3985326139856236 13.188856784950296 28.917920187684953 -1.987846675914698e-15 7.951386703658792e-16 9.442271710594815e-16
-7.500000476837158 11.100000381469727 30.30000114440918 -1.3400085259764196 -4.845503382529107 -158.17108896205593 -1.327508580599278e-07 5.550726069061093e-07 -7.27101480410109 85.01322857520984 23.282614332921188 -169.58005599395065 1.2565104460880124e-06 5.504737683268614e-06 30.36600402885595 6.3611093629270335e-15 -1.5448672043175555e-31 -2.782985346280577e-15 -116.29882855394725 -7.494411777594272 155.9461941435354 -1.5965749200459994e-07 -3.5268293646714176e-07 -103.35862264583204 -1.5902773407317582e-15 4.4139062980501586e-32 -3.1805546814635164e-15 0.7386771214141665 4.654628907088332 -71.48456807895721 11.348606198969723 -2.7735703869005195 8.126487760930083 3.4787316828507225e-16 4.111096808364589e-33 1.3542205479668884e-15 -4.827579424554657 -13.057209880450277 27.296129184744867 -3.579045250327428 13.197535802501742 29.151414416363792 7.951386703658791e-16 -7.951386703658791e-16 1.3417965062424209e-15
-7.699999809265137 11.100000381469727 30.5 -0.5011159690538725 -3.6697818890273792 -158.35329183133342 -1.3497298757992262e-08 -4.241881766420461e-08 -6.989239426936913 85.35593185536612 24.112648374687687 -170.31711955161745 2.581493463002664e-06 4.4618202018526e-07 30.064412103700686 0.0 0.0 -3.776908684237926e-15 -112.15477934055527 -11.790401251185964 165.2518425559668 5.975139310677662e-06 -7.100944711757997e-06 -96.5419352308895 -3.1805546814635164e-15 7.95138670365879e-15 2.2069531490250793e-31 1.8620554411300836 5.641483543813487 -71.61122313581512 11.861651927271717 -2.950821872077022 8.855591373051578 1.987846675914698e-16 2.981770013872047e-16 -2.0810269888481995e-15 -3.6512045908184123 -12.544700659617975 26.45544461136943 -3.823136421993995 13.307600674117218 29.903327873985127 -3.975693351829395e-16 3.975693351829395e-16 1.9878466759146975e-16
-8.0 11.100000381469727 30.700000762939453 0.16655768219583544 -2.496773564741088 -158.7084744047006 -1.0494700696483395e-08 -2.1508691218258015e-08 -6.98944694159136 86.13429613506493 24.775417859725536 -171.4829220800903 -2.9653585151288595e-06 3.3626706029694147e-06 29.734190618455568 0.0 0.0 2.385416011097637e-15 -106.38064832202608 -13.61172270886788 173.0579242213412 -3.039716732875445e-07 3.7162506074802935e-06 -85.82655604453657 0.0 -1.5902773407317582e-15 0.0 2.664761427377667 6.73271462528343 -71.38114763778886 12.446086030314717 -3.0401284780276114 9.352732378025975 -3.851452934584727e-16 2.571742272359036e-32 -7.651656697056029e-15 -2.5584600783569997 -11.844476449243318 25.536644250578476 -4.316588892118418 13.21686380086318 30.292980021300945 -7.951386703658794e-16 3.975693351829397e-16 2.758691436281349e-33
